<?xml version="1.0" standalone="no"?>
<!DOCTYPE svg PUBLIC "-//W3C//DTD SVG 20010904//EN"
 "http://www.w3.org/TR/2001/REC-SVG-20010904/DTD/svg10.dtd">
<svg version="1.0" xmlns="http://www.w3.org/2000/svg"
 width="249.000000pt" height="252.000000pt" viewBox="0 0 249.000000 252.000000"
 preserveAspectRatio="xMidYMid meet">

<g transform="translate(0.000000,252.000000) scale(0.100000,-0.100000)"
fill="#000000" stroke="none">
<path d="M1135 2349 c-314 -28 -630 -220 -807 -489 -77 -117 -159 -310 -157
-369 0 -9 10 18 22 59 25 82 86 220 97 220 4 0 11 11 14 24 9 36 53 84 99 107
35 18 39 19 33 4 -4 -11 5 -7 27 11 21 19 29 31 20 34 -19 8 88 142 143 179
27 17 54 29 61 27 7 -3 13 -1 13 4 0 6 15 19 33 30 41 25 183 73 200 67 25 -8
-150 -147 -186 -147 -6 0 -20 8 -31 18 -21 17 -21 17 -3 -4 9 -11 17 -25 16
-30 -1 -18 -122 -114 -143 -114 -16 0 -18 -2 -7 -9 10 -7 1 -23 -40 -74 -30
-36 -74 -99 -99 -141 -25 -41 -49 -74 -55 -72 -5 2 -9 18 -8 37 l2 34 -11 -28
-10 -28 -26 23 -26 23 26 -32 c17 -21 25 -41 22 -55 l-5 -23 11 23 c5 13 14
21 20 17 12 -7 -9 -55 -24 -55 -6 0 -19 -35 -28 -77 -23 -113 -31 -127 -90
-166 -101 -67 -101 -67 -93 -166 8 -110 30 -232 55 -307 16 -51 17 -61 5 -74
-8 -9 -25 -38 -37 -65 -21 -45 -23 -65 -23 -195 0 -130 2 -150 23 -195 28 -61
46 -81 97 -109 35 -18 56 -21 160 -20 136 0 198 16 203 52 4 26 6 27 43 5 16
-10 29 -25 29 -35 0 -14 8 -18 34 -18 18 0 59 -11 91 -25 89 -40 248 -74 370
-81 192 -10 407 37 573 127 41 21 75 39 78 39 2 0 4 -13 4 -30 l0 -30 173 0
c232 0 289 18 328 104 38 84 17 189 -47 231 l-31 21 23 17 c48 36 55 154 15
223 -19 32 -19 34 -1 93 11 33 22 84 25 113 4 41 1 33 -14 -32 -10 -47 -24
-97 -30 -112 -10 -27 -11 -27 -45 -13 -20 8 -47 15 -61 15 -30 0 -30 -5 -4 92
16 57 28 84 46 96 13 9 44 32 68 49 l44 33 4 -38 c3 -20 4 40 2 133 -3 146 -7
183 -29 263 -146 525 -636 861 -1181 811z m-29 -58 c-3 -4 -33 -18 -67 -30
-93 -35 -64 -35 36 -1 48 17 93 29 98 27 5 -1 -22 -28 -61 -60 -39 -31 -91
-83 -117 -116 -54 -69 -63 -74 -106 -59 -28 10 -30 14 -25 42 l5 31 -15 -28
c-13 -24 -20 -28 -42 -23 -26 5 -26 5 -4 -6 31 -15 24 -41 -13 -49 l-30 -7 28
-1 c15 0 27 -6 27 -13 0 -7 5 -5 13 4 17 23 87 35 87 16 0 -8 -6 -20 -12 -28
-7 -7 3 -1 21 14 28 22 42 27 68 23 20 -4 31 -2 28 4 -4 5 -19 9 -36 9 -16 0
-29 5 -29 10 0 6 35 47 78 92 77 81 194 168 200 149 2 -5 10 -7 18 -4 24 9 44
-17 46 -61 1 -36 2 -37 5 -9 3 23 8 30 19 26 18 -7 106 -117 128 -161 l17 -33
-73 3 -73 3 -6 45 -6 45 -1 -47 -2 -48 -41 0 c-34 0 -42 4 -47 22 -5 21 -6 21
-12 2 -6 -16 -20 -20 -91 -25 l-84 -5 88 -2 c112 -3 116 -21 5 -24 l-83 -2 74
-5 c83 -7 99 -20 47 -39 -74 -27 -124 -122 -111 -209 7 -48 49 -104 96 -129
20 -10 29 -22 29 -40 0 -30 -2 -31 -127 -38 l-101 -6 -58 147 -57 147 31 60
c17 33 30 61 28 63 -1 2 -17 -23 -34 -54 l-31 -58 -11 30 c-6 16 -9 46 -6 65
2 19 2 27 0 18 -7 -24 -21 -23 -29 2 -3 11 -10 20 -14 20 -4 0 -42 -87 -83
-192 l-76 -193 -38 1 -39 2 33 -10 c37 -12 39 -20 14 -67 -16 -31 -25 -36
-117 -63 -55 -16 -107 -30 -115 -31 -24 -3 -23 43 0 114 25 76 45 109 63 105
6 -1 9 -1 5 1 -18 10 -4 41 56 132 88 131 154 201 192 202 26 1 26 2 6 7 -21
7 -19 10 28 50 29 25 57 41 65 38 8 -3 12 0 9 7 -4 11 81 77 99 77 5 0 5 -10
2 -22 -5 -16 1 -11 19 13 14 20 32 39 42 43 9 3 14 12 11 20 -9 22 35 56 84
65 60 12 81 13 75 2z m463 -16 c15 -15 13 -16 -14 -11 -16 4 -6 -3 24 -14 29
-11 60 -25 68 -32 8 -6 26 -13 41 -14 22 -2 18 2 -20 22 -26 13 -49 28 -53 34
-21 33 122 -20 160 -60 31 -32 25 -38 -15 -15 -45 26 -46 16 -1 -11 l43 -26
-26 -26 c-25 -26 -25 -26 -48 -7 -13 11 -17 13 -10 5 6 -8 12 -18 12 -22 0
-16 -22 -7 -73 30 -55 41 -89 62 -72 45 6 -5 30 -25 55 -43 56 -43 120 -102
120 -111 0 -4 -19 -5 -42 -3 l-43 3 43 -9 c56 -12 60 -15 68 -55 6 -32 1 -41
-52 -106 -33 -39 -69 -83 -81 -98 -11 -14 -25 -22 -30 -18 -4 5 -10 63 -13
130 l-5 122 -40 3 c-22 2 -44 8 -50 13 -19 19 19 29 90 24 45 -3 59 -1 40 4
l-30 8 28 11 c16 7 33 12 39 12 6 0 9 3 6 6 -3 3 -30 -2 -59 -10 -56 -17 -117
-21 -135 -8 -6 4 -28 34 -48 66 -21 33 -63 86 -93 117 l-55 58 94 -3 c61 -3
86 -1 73 5 -14 6 -2 8 34 4 31 -2 62 -11 70 -20z m-634 5 c-3 -5 -12 -10 -18
-10 -7 0 -48 -13 -91 -30 -44 -16 -82 -28 -84 -25 -7 7 62 38 123 56 72 21 78
22 70 9z m949 -139 c69 -54 130 -117 123 -129 -4 -5 7 -22 23 -37 39 -38 38
-46 -6 -32 -27 8 -34 15 -31 29 5 16 -2 18 -71 18 -88 0 -138 19 -162 62 -14
27 -14 29 16 59 28 27 34 30 55 20 l24 -12 -22 17 c-24 17 -31 44 -11 44 6 0
34 -18 62 -39z m-1393 -145 c-35 -50 -76 -86 -100 -86 -9 0 10 26 49 65 35 36
68 65 73 65 4 0 -6 -20 -22 -44z m819 34 c0 -5 -20 -10 -45 -10 -25 0 -45 5
-45 10 0 6 20 10 45 10 25 0 45 -4 45 -10z m140 0 c-20 -13 -120 -13 -120 0 0
6 29 10 68 10 47 0 63 -3 52 -10z m46 -22 c4 -6 2 -14 -4 -16 -9 -3 -12 -62
-12 -218 0 -118 -3 -214 -8 -214 -4 0 -17 23 -30 50 -15 34 -37 59 -63 77 -25
16 -39 33 -39 47 0 11 -3 31 -6 44 -6 21 -4 22 60 22 36 0 66 3 66 8 0 54 -61
145 -108 163 -38 15 -20 34 39 40 90 10 98 9 105 -3z m-186 -14 c0 -2 -21 -4
-46 -4 -25 0 -43 4 -40 8 4 7 86 4 86 -4z m530 -14 c0 -5 -2 -10 -4 -10 -3 0
-8 5 -11 10 -3 6 -1 10 4 10 6 0 11 -4 11 -10z m-20 -20 c0 -19 -18 -19 -23
-1 -3 14 -1 18 9 14 8 -3 14 -9 14 -13z m288 -30 c13 -16 18 -30 13 -30 -5 0
-19 14 -31 30 -12 17 -17 30 -13 30 5 0 19 -13 31 -30z m-67 -6 c55 -25 61
-31 94 -97 19 -38 35 -78 35 -87 0 -17 -28 -45 -76 -78 -16 -10 -15 -11 6 -1
14 7 36 20 49 31 30 23 36 17 54 -52 9 -30 16 -48 16 -39 1 9 -6 38 -14 65
-18 58 -19 74 -4 74 14 0 72 -127 98 -215 26 -85 41 -195 28 -195 -5 0 -27 14
-48 31 -37 29 -39 34 -41 92 l-2 62 -3 -58 c-4 -58 -4 -59 -31 -53 -16 4 -1
-9 37 -30 108 -63 132 -140 64 -206 -34 -32 -73 -58 -87 -58 -3 0 -3 15 -1 33
5 28 4 27 -8 -8 -7 -23 -19 -40 -27 -40 -8 0 -19 -5 -25 -12 -11 -13 -120 -47
-235 -74 -41 -9 -66 -18 -55 -18 23 -1 190 41 253 63 l42 15 0 -43 c0 -24 -5
-58 -11 -75 l-12 -33 -166 4 c-91 1 -173 7 -181 13 -8 5 -23 8 -32 7 -11 -2
-18 3 -18 14 0 12 6 15 25 12 14 -3 25 -1 25 3 0 5 12 10 28 10 23 2 24 2 5 6
-16 3 -23 12 -23 26 0 21 -1 21 -13 -3 -17 -34 -47 -39 -48 -8 l-2 23 -4 -22
c-5 -28 -18 -31 -158 -38 -60 -3 -143 -8 -182 -11 -49 -4 -73 -2 -73 5 0 7 30
12 78 13 l77 2 -70 3 c-38 2 -75 9 -82 15 -9 7 -13 7 -13 -1 0 -15 -122 -15
-138 1 -9 9 -12 9 -12 0 0 -7 -18 -13 -47 -14 l-48 -2 48 -3 c64 -5 60 -23 -5
-25 l-53 -1 50 -6 50 -6 4 -65 5 -65 5 65 6 65 63 0 c80 0 82 -19 2 -23 l-60
-3 -1 -72 c-1 -40 -4 -133 -8 -207 l-6 -135 -68 -8 c-38 -5 -75 -6 -83 -3 -34
13 -144 300 -144 376 0 33 -5 50 -15 54 -8 3 -15 12 -15 21 0 12 15 15 80 15
106 0 104 18 -2 22 l-83 3 -12 35 -12 35 0 -34 -1 -33 -67 7 c-38 4 -78 13
-90 21 -12 8 -23 9 -25 4 -4 -13 -229 44 -242 62 -6 7 -19 12 -28 10 -20 -4
-98 34 -98 49 0 6 -4 8 -10 4 -15 -9 -88 63 -95 95 -9 43 20 94 74 130 l46 31
4 -28 3 -28 12 35 c6 19 16 35 21 35 6 1 24 8 40 17 39 21 193 63 202 55 3 -4
-4 -30 -16 -58 -32 -78 -31 -80 41 -77 l63 3 17 45 c21 56 22 47 3 -60 -8 -47
-15 -96 -14 -110 0 -14 9 25 20 85 29 164 40 199 67 203 20 3 22 -1 22 -50 0
-80 12 -218 19 -218 3 0 2 56 -3 124 -5 68 -6 131 -3 140 4 10 18 16 36 16 25
0 31 -5 42 -37 6 -21 20 -62 31 -90 l19 -53 65 0 c35 0 64 1 64 3 0 2 -16 43
-35 92 -19 49 -34 89 -32 90 1 1 45 -1 97 -4 l95 -6 6 -140 c9 -191 12 -195
19 -20 l5 150 68 3 c62 3 68 1 65 -15 -2 -10 -17 -22 -36 -28 -31 -9 -32 -10
-32 -68 l0 -59 35 4 35 4 2 -121 2 -120 6 123 5 122 31 19 c41 25 82 79 90
119 11 55 24 35 24 -39 l0 -70 67 75 c67 75 90 88 111 63 10 -12 33 -113 51
-227 5 -31 9 -42 9 -25 1 17 -7 79 -17 138 -10 59 -14 110 -10 113 4 2 40 -35
80 -83 l72 -87 -6 -76 c-3 -43 -1 -62 3 -45 4 17 8 49 9 73 l1 42 75 0 c41 0
75 3 75 6 0 3 -25 36 -55 72 -30 36 -53 67 -51 69 4 5 152 -32 191 -47 14 -5
30 -20 35 -32 7 -19 9 -20 9 -4 1 14 6 17 24 13 22 -6 22 -6 2 9 -11 8 -29 24
-39 37 -16 18 -18 18 -13 3 8 -21 15 -22 -133 17 -52 14 -99 31 -104 40 -14
22 0 46 36 63 l33 14 -36 -6 -36 -6 -7 79 c-4 43 -9 87 -12 98 -3 13 8 34 29
59 l34 40 53 -87 c29 -48 55 -87 58 -87 6 0 -57 110 -85 147 l-24 33 32 40
c18 22 34 40 37 40 2 0 31 -12 63 -26z m-740 -64 c16 -9 19 -22 19 -76 l0 -66
-42 7 c-79 12 -78 11 -78 69 0 28 5 57 12 64 15 15 63 16 89 2z m880 -42 c8
-15 8 -18 0 -14 -6 4 -16 16 -22 28 -8 15 -8 18 0 14 6 -4 16 -16 22 -28z
m-994 -35 c-3 -10 -5 -2 -5 17 0 19 2 27 5 18 2 -10 2 -26 0 -35z m655 -119
c3 -73 1 -79 -17 -81 -13 -2 -31 12 -52 38 l-33 41 43 52 c27 34 45 49 49 41
4 -6 8 -47 10 -91z m-1027 -83 c6 -20 4 -22 -17 -19 -18 2 -24 10 -26 36 -2
19 -1 41 3 50 5 14 9 11 19 -14 8 -17 17 -40 21 -53z m-59 -9 c-12 -12 -18 8
-10 35 l8 28 4 -28 c2 -16 1 -31 -2 -35z m542 19 c38 -21 24 -31 -43 -31 -65
0 -65 0 -65 28 0 28 1 29 43 22 23 -3 52 -12 65 -19z m552 -37 c0 -8 -4 -12
-10 -9 -5 3 -10 10 -10 16 0 5 5 9 10 9 6 0 10 -7 10 -16z m-1100 -14 c0 -5
-7 -10 -16 -10 -8 0 -12 5 -9 10 3 6 10 10 16 10 5 0 9 -4 9 -10z m420 0 c0
-6 -32 -9 -77 -9 -61 1 -70 3 -43 9 53 11 120 11 120 0z m150 1 c0 -14 -57
-24 -96 -17 -56 11 -38 26 31 26 36 0 65 -4 65 -9z m-1070 -433 c0 -4 8 -8 18
-9 9 0 37 -10 62 -22 40 -20 48 -29 67 -82 28 -77 28 -75 -4 -75 -16 0 -45 -5
-66 -11 -22 -6 -40 -9 -42 -7 -2 2 -8 37 -13 78 -6 49 -10 61 -10 35 -1 -22 3
-59 7 -83 7 -37 6 -44 -11 -53 -11 -6 -21 -9 -22 -7 -20 26 -76 232 -76 280
l0 28 45 -32 c25 -18 45 -35 45 -40z m276 -94 c91 -24 195 -42 252 -43 45 -2
20 -19 -41 -30 -85 -15 -95 -14 -100 7 -4 13 -5 11 -6 -5 -1 -21 -6 -23 -53
-22 -29 0 -75 4 -102 7 -45 6 -50 10 -61 42 -29 83 -29 82 -8 76 11 -4 64 -18
119 -32z m784 -54 c0 -6 -30 -10 -70 -10 -40 0 -70 4 -70 10 0 6 30 10 70 10
40 0 70 -4 70 -10z m379 -16 c50 -10 36 -22 -34 -29 l-65 -7 0 -194 c0 -186
-1 -194 -22 -219 l-23 -26 -97 13 -98 12 0 207 c0 183 -2 208 -16 213 -9 4
-14 10 -10 14 14 14 309 27 365 16z m-859 -20 c0 -13 -11 -15 -62 -12 l-63 3
-5 -165 -5 -165 -19 95 c-11 52 -20 127 -20 165 l-1 70 55 12 c82 17 120 16
120 -3z m930 -9 c0 -8 -2 -15 -4 -15 -2 0 -6 7 -10 15 -3 8 -1 15 4 15 6 0 10
-7 10 -15z m88 -202 c2 -159 0 -203 -10 -203 -7 0 -29 -3 -48 -6 l-35 -6 0
179 c0 98 4 193 9 211 7 31 10 33 44 30 l37 -3 3 -202z m-1204 105 c5 -70 19
-143 51 -278 5 -21 -2 -16 -40 25 -25 28 -69 84 -97 125 l-50 75 56 3 56 3 0
70 c0 95 15 80 24 -23z m-119 -98 c20 -32 61 -91 91 -131 30 -39 54 -73 52
-75 -7 -6 -155 36 -211 61 -53 23 -60 30 -89 90 -30 61 -31 66 -16 82 15 14
65 28 120 32 10 1 30 -21 53 -59z m1535 53 c0 -5 -9 -21 -20 -38 l-20 -30 0
38 c0 30 4 37 20 37 11 0 20 -3 20 -7z m58 -5 c-3 -7 -13 -37 -23 -65 -17 -47
-22 -53 -47 -53 -36 0 -35 10 4 76 21 35 39 54 51 54 11 0 17 -5 15 -12z m43
2 c13 -8 19 -21 19 -46 0 -53 -15 -74 -53 -74 l-33 0 20 65 c12 36 22 65 24
65 2 0 12 -5 23 -10z m-1203 -222 c33 -72 31 -78 -28 -78 -60 0 -60 -1 -59
154 l0 141 29 -75 c15 -42 41 -106 58 -142z m-594 35 c25 -35 72 -89 105 -122
l59 -59 -41 -4 c-63 -6 -128 7 -144 28 -21 29 -33 84 -33 158 0 38 2 67 4 65
2 -2 25 -32 50 -66z m182 -52 c38 -11 88 -25 112 -31 l42 -11 0 -64 c0 -38 -4
-65 -10 -65 -21 0 -60 33 -60 50 0 16 -4 17 -36 8 -35 -9 -39 -8 -78 32 -23
23 -32 37 -20 32 11 -6 27 -18 34 -27 7 -9 23 -21 34 -27 12 -5 -9 18 -46 52
-64 58 -86 89 -54 77 7 -3 44 -14 82 -26z m1504 -15 c0 -2 -7 -9 -15 -16 -12
-10 -15 -10 -15 4 0 9 7 16 15 16 8 0 15 -2 15 -4z m140 -16 c23 -23 26 -58 6
-85 -12 -16 -29 -20 -95 -23 l-81 -4 0 30 c0 20 11 43 32 66 27 31 38 36 75
36 30 0 49 -6 63 -20z m-385 -42 c-59 -52 -66 -54 -58 -16 3 18 7 35 9 37 5 5
78 18 83 15 2 -2 -14 -18 -34 -36z m-635 12 c0 -6 -29 -10 -67 -9 -50 1 -61 3
-43 9 36 12 110 12 110 0z m269 -6 c2 -2 -14 -4 -37 -4 -22 0 -44 5 -47 10 -6
10 73 3 84 -6z m411 -54 c0 -33 -2 -60 -4 -60 -2 0 -11 -2 -18 -5 -8 -3 -24 8
-37 26 l-23 31 33 34 c18 19 37 34 41 34 4 0 8 -27 8 -60z m-832 23 c6 -9 12
-19 12 -22 0 -3 -36 -5 -80 -3 -60 3 -80 7 -80 18 0 7 12 16 28 20 15 3 32 7
37 9 20 8 70 -6 83 -22z m152 4 c11 -9 15 -35 16 -99 0 -49 -2 -88 -6 -88 -4
0 -16 10 -28 23 -15 16 -22 38 -24 77 l-3 55 -31 -3 c-30 -3 -64 17 -64 39 0
13 123 10 140 -4z m360 6 c0 -3 -7 -15 -17 -25 -31 -34 -161 -15 -139 20 8 13
156 17 156 5z m44 -8 c-6 -14 -35 -35 -49 -35 -3 0 2 11 11 25 18 27 47 35 38
10z m-334 -115 c16 -23 19 -37 14 -70 -7 -45 -14 -53 -33 -41 -17 11 -30 79
-30 151 l0 55 14 -33 c8 -18 24 -46 35 -62z m544 38 c13 -18 14 -25 3 -35 -14
-14 -165 -77 -210 -87 -37 -9 -27 9 10 19 46 11 93 45 120 86 29 44 55 49 77
17z m-1113 -9 c11 -11 18 -23 15 -27 -9 -9 -56 20 -56 35 0 19 17 16 41 -8z
m669 -100 c0 -3 -18 -15 -40 -28 l-40 -22 0 23 c0 13 3 32 6 44 5 20 7 20 39
5 19 -9 34 -19 35 -22z m385 15 c-21 -16 -109 -44 -134 -43 -15 0 123 56 144
57 6 1 1 -5 -10 -14z m-539 -52 c-3 -2 -29 4 -58 14 -46 16 -49 19 -25 22 15
2 27 8 27 15 0 6 13 -2 30 -18 16 -16 28 -30 26 -33z m-306 28 c12 -8 10 -10
-10 -9 -14 0 -34 4 -45 9 -17 7 -16 9 10 9 17 0 37 -4 45 -9z m200 -10 c42
-18 43 -19 15 -19 -16 1 -61 9 -100 19 l-70 18 55 0 c33 1 73 -7 100 -18z
m323 9 c15 0 -19 -14 -58 -23 l-30 -7 25 21 c14 11 31 17 38 15 8 -3 19 -5 25
-6z m-381 -37 c-20 -6 -76 7 -98 23 -15 11 -7 11 46 -2 35 -9 59 -18 52 -21z
m485 24 c-16 -12 -116 -30 -125 -22 -6 7 83 34 113 35 27 0 28 -1 12 -13z
m-222 -66 c4 -6 -5 -10 -20 -10 -15 0 -24 4 -20 10 3 6 12 10 20 10 8 0 17 -4
20 -10z"/>
<path d="M1232 2225 c0 -16 2 -22 5 -12 2 9 2 23 0 30 -3 6 -5 -1 -5 -18z"/>
<path d="M1222 2150 c0 -19 2 -27 5 -17 2 9 2 25 0 35 -3 9 -5 1 -5 -18z"/>
<path d="M718 2003 c7 -3 16 -2 19 1 4 3 -2 6 -13 5 -11 0 -14 -3 -6 -6z"/>
<path d="M470 1630 c8 -5 20 -10 25 -10 6 0 3 5 -5 10 -8 5 -19 10 -25 10 -5
0 -3 -5 5 -10z"/>
<path d="M1375 2270 c27 -12 43 -12 25 0 -8 5 -22 9 -30 9 -10 0 -8 -3 5 -9z"/>
<path d="M1498 2273 c7 -3 16 -2 19 1 4 3 -2 6 -13 5 -11 0 -14 -3 -6 -6z"/>
<path d="M1430 2250 c8 -5 20 -10 25 -10 6 0 3 5 -5 10 -8 5 -19 10 -25 10 -5
0 -3 -5 5 -10z"/>
<path d="M1510 2216 c0 -3 14 -12 30 -21 17 -9 30 -13 30 -11 0 3 -13 12 -30
21 -16 9 -30 13 -30 11z"/>
<path d="M1885 2098 c17 -13 47 -38 68 -57 21 -19 40 -32 42 -29 5 5 -97 88
-125 102 -8 4 -1 -3 15 -16z"/>
<path d="M2026 1644 c-3 -7 -23 -18 -46 -25 -22 -7 -38 -14 -36 -17 3 -2 25 3
50 11 42 14 47 14 57 -1 9 -15 10 -15 6 -1 -3 9 -1 21 4 26 7 7 3 12 -10 16
-11 3 -22 -1 -25 -9z"/>
<path d="M2060 1589 c0 -4 7 -22 15 -40 8 -19 14 -27 14 -19 0 14 -28 72 -29
59z"/>
<path d="M2222 1555 c0 -16 2 -22 5 -12 2 9 2 23 0 30 -3 6 -5 -1 -5 -18z"/>
<path d="M2131 1364 c0 -11 3 -14 6 -6 3 7 2 16 -1 19 -3 4 -6 -2 -5 -13z"/>
<path d="M333 1320 c0 -25 2 -35 4 -22 2 12 2 32 0 45 -2 12 -4 2 -4 -23z"/>
<path d="M2233 1310 c0 -30 2 -43 4 -27 2 15 2 39 0 55 -2 15 -4 2 -4 -28z"/>
<path d="M272 1305 c0 -16 2 -22 5 -12 2 9 2 23 0 30 -3 6 -5 -1 -5 -18z"/>
<path d="M2142 1310 c0 -14 2 -19 5 -12 2 6 2 18 0 25 -3 6 -5 1 -5 -13z"/>
<path d="M263 1225 c0 -27 2 -38 4 -22 2 15 2 37 0 50 -2 12 -4 0 -4 -28z"/>
<path d="M2152 1250 c0 -14 2 -19 5 -12 2 6 2 18 0 25 -3 6 -5 1 -5 -13z"/>
<path d="M342 1230 c0 -14 2 -19 5 -12 2 6 2 18 0 25 -3 6 -5 1 -5 -13z"/>
<path d="M2222 1215 c0 -16 2 -22 5 -12 2 9 2 23 0 30 -3 6 -5 -1 -5 -18z"/>
<path d="M782 1200 c0 -19 2 -27 5 -17 2 9 2 25 0 35 -3 9 -5 1 -5 -18z"/>
<path d="M1723 1145 c0 -38 2 -53 4 -32 2 20 2 52 0 70 -2 17 -4 1 -4 -38z"/>
<path d="M351 1174 c0 -11 3 -14 6 -6 3 7 2 16 -1 19 -3 4 -6 -2 -5 -13z"/>
<path d="M2163 1150 c0 -25 2 -35 4 -22 2 12 2 32 0 45 -2 12 -4 2 -4 -23z"/>
<path d="M643 1115 c0 -33 2 -45 4 -27 2 18 2 45 0 60 -2 15 -4 0 -4 -33z"/>
<path d="M1822 1150 c0 -14 2 -19 5 -12 2 6 2 18 0 25 -3 6 -5 1 -5 -13z"/>
<path d="M792 1135 c0 -16 2 -22 5 -12 2 9 2 23 0 30 -3 6 -5 -1 -5 -18z"/>
<path d="M361 1124 c0 -11 3 -14 6 -6 3 7 2 16 -1 19 -3 4 -6 -2 -5 -13z"/>
<path d="M1811 1104 c0 -11 3 -14 6 -6 3 7 2 16 -1 19 -3 4 -6 -2 -5 -13z"/>
<path d="M802 1070 c0 -14 2 -19 5 -12 2 6 2 18 0 25 -3 6 -5 1 -5 -13z"/>
<path d="M1801 1054 c0 -11 3 -14 6 -6 3 7 2 16 -1 19 -3 4 -6 -2 -5 -13z"/>
<path d="M396 1815 c-9 -26 -7 -32 5 -12 6 10 9 21 6 23 -2 3 -7 -2 -11 -11z"/>
<path d="M157 1435 c-4 -22 -6 -56 -6 -75 1 -22 5 -11 10 30 10 72 6 108 -4
45z"/>
</g>
</svg>
